<svg width="122" height="109" viewBox="0 0 122 109" fill="none" xmlns="http://www.w3.org/2000/svg">
<path d="M63.7959 0C66.8418 0 69.4238 0.306299 71.541 0.918945C73.6953 1.49752 75.4411 2.31412 76.7783 3.36914C78.1155 4.39018 79.0815 5.59873 79.6758 6.99414C80.3072 8.35551 80.623 9.81921 80.623 11.3848C80.623 12.644 80.4368 13.9374 80.0654 15.2646C79.7311 16.558 79.2486 17.8689 78.6172 19.1963C78.0229 20.4896 77.2801 21.7661 76.3887 23.0254C75.4973 24.2846 74.5312 25.4755 73.4912 26.5986L71.5967 26.0371C72.228 25.4585 72.8598 24.6251 73.4912 23.5361C74.1598 22.4129 74.7544 21.17 75.2744 19.8086C75.8315 18.4134 76.2771 16.967 76.6113 15.4697C76.9456 13.9383 77.1123 12.4744 77.1123 11.0791C77.1123 9.85396 76.927 8.69645 76.5557 7.60742C76.1842 6.4843 75.5525 5.5141 74.6611 4.69727C73.7698 3.84646 72.5813 3.18255 71.0957 2.70605C69.6471 2.19552 67.8448 1.94043 65.6904 1.94043C61.679 1.94046 57.7233 2.68903 53.8232 4.18652C49.9231 5.65005 46.2269 7.743 42.7354 10.4658C39.2809 13.1546 36.1053 16.4225 33.208 20.2686C30.3108 24.1145 27.8778 28.4029 25.9092 33.1338C24.4234 36.6735 23.2713 40.2309 22.4541 43.8047C21.6741 47.3442 21.2842 50.6971 21.2842 53.8623C21.2842 58.6271 22.2131 62.1326 24.0703 64.3789C25.9646 66.5911 28.8803 67.6972 32.8174 67.6973C38.0919 67.6973 43.33 65.6379 48.5303 61.5195C53.1402 57.8645 57.792 52.4815 62.4883 45.3721C62.8093 44.0337 63.084 42.659 63.3057 41.2461C63.5837 39.6395 63.7227 38.1403 63.7227 36.75C63.7226 35.8233 63.6456 34.9584 63.4912 34.1553C63.3676 33.352 63.1357 32.6723 62.7959 32.1162C62.4561 31.5292 62.0082 31.0654 61.4521 30.7256C60.9269 30.3857 60.2623 30.2158 59.459 30.2158C58.0997 30.2159 56.6631 30.6638 55.1494 31.5596C53.6665 32.4246 52.1371 33.7691 50.5615 35.5918C48.9859 37.4146 47.3786 39.7315 45.7412 42.543C45.1134 43.6295 44.2973 44.6669 43.4414 45.7539C42.1071 47.4486 40.6767 49.265 39.7168 51.5801C41.416 47.3784 43.1312 43.81 44.8613 40.875C46.6223 37.94 48.3835 35.5611 50.1445 33.7383C51.9364 31.8846 53.7126 30.5402 55.4736 29.7061C57.2654 28.872 59.0418 28.4551 60.8027 28.4551C62.502 28.4551 63.9083 28.779 65.0205 29.4277C66.1636 30.0765 67.0592 30.9731 67.708 32.1162C68.3568 33.2285 68.8046 34.5418 69.0518 36.0557C69.3298 37.5386 69.4697 39.1299 69.4697 40.8291C69.4697 42.003 69.3608 43.3626 69.1445 44.9072C69.0081 45.8814 68.8226 46.8863 68.5879 47.9219V48.9951C70.4641 45.8527 72.287 43.0527 74.0576 40.5967C75.973 37.9399 77.8884 35.7157 79.8037 33.9238C81.7192 32.101 83.6662 30.7417 85.6436 29.8457C87.6209 28.9189 89.6909 28.4551 91.8535 28.4551C93.5526 28.4551 95.1591 28.733 96.6729 29.2891C98.2176 29.8452 99.5619 30.6638 100.705 31.7451C101.848 32.7955 102.744 34.1241 103.393 35.7305C104.072 37.337 104.412 39.1761 104.412 41.2461C104.412 42.7599 104.165 44.4902 103.671 46.4365C103.207 48.352 102.59 50.4221 101.817 52.6465C101.076 54.84 100.21 57.157 99.2217 59.5977C98.233 62.0075 97.2135 64.4793 96.1631 67.0127C95.1435 69.5152 94.139 72.033 93.1504 74.5664C92.1618 77.0688 91.2821 79.5408 90.5098 81.9814C89.7683 84.3913 89.1496 86.7241 88.6553 88.9795C88.1918 91.2348 87.96 93.3358 87.96 95.2822C87.96 97.4758 88.5167 99.2369 89.6289 100.565C90.7412 101.894 92.5332 102.559 95.0049 102.559C97.0439 102.559 99.0061 102.08 100.891 101.122C102.775 100.164 104.644 98.743 106.498 96.8584C108.383 94.9429 110.283 92.5631 112.198 89.7207C114.145 86.8784 116.184 83.5728 118.315 79.8037L120.726 75.54L121.977 76.4209L119.566 80.6846C117.249 84.7935 115.056 88.362 112.986 91.3896C110.916 94.4174 108.861 96.9351 106.822 98.9434C104.814 100.921 102.744 102.388 100.612 103.346C98.5114 104.334 96.2556 104.829 93.8457 104.829C91.5287 104.829 89.5665 104.566 87.96 104.041C86.3536 103.516 85.0409 102.774 84.0215 101.816C83.002 100.828 82.2603 99.6542 81.7969 98.2949C81.3643 96.9046 81.1475 95.3594 81.1475 93.6602C81.1475 92.1773 81.3794 90.4009 81.8428 88.3311C82.3371 86.2612 82.9858 84.021 83.7891 81.6113C84.5923 79.1706 85.4889 76.6059 86.4775 73.918C87.3645 71.5797 88.2635 69.2298 89.1738 66.8682C87.7872 68.5299 86.3681 70.0157 84.9131 71.3223C83.093 72.956 81.1611 74.3348 79.1182 75.458C77.1125 76.5811 74.8654 77.5169 72.377 78.2656C69.9255 79.0144 67.1952 79.627 64.1865 80.1035C61.215 80.58 57.8532 80.9887 54.1016 81.3291C49.4216 89.0367 44.4884 95.104 39.3047 99.5342C39.0267 101.263 39.0573 100.777 39.1846 99.6367C38.1127 100.547 37.0309 101.389 35.9375 102.159C29.5487 106.72 22.5842 109 15.0439 109C9.95513 109 6.16642 108.047 3.67773 106.141C1.22629 104.235 0 101.682 0 98.4824C8.9235e-05 96.2024 0.63189 94.1946 1.89453 92.459C3.15743 90.7572 4.90322 89.2759 7.13184 88.0166C9.36052 86.7573 11.961 85.6857 14.9326 84.8008C17.9412 83.9499 21.1541 83.2181 24.5713 82.6055C28.0257 82.0269 31.6107 81.5334 35.3252 81.125C39.0025 80.7247 42.6441 80.3564 46.25 80.0215C48.1205 76.0619 50.1776 71.9394 52.1279 68.1348C53.4024 65.2357 54.7482 62.1118 56.1631 58.7627L57.6113 55.291C56.1256 57.0949 54.4548 58.8993 52.5977 60.7031C50.7776 62.4729 48.7715 64.0725 46.5801 65.502C44.4257 66.8974 42.1039 68.0379 39.6152 68.9229C37.1265 69.7737 34.489 70.1992 31.7031 70.1992C28.8803 70.1992 26.299 69.7224 23.959 68.7695C21.656 67.7825 19.6871 66.3869 18.0527 64.583C16.4184 62.7451 15.1366 60.5497 14.208 57.9971C13.3166 55.4104 12.8711 52.5344 12.8711 49.3691C12.8711 47.0887 13.1128 44.6551 13.5957 42.0684C14.0786 39.4817 14.8028 36.844 15.7686 34.1553C17.6629 29.084 20.244 24.4549 23.5127 20.2686C26.8185 16.0822 30.5888 12.4912 34.8232 9.49609C39.0577 6.4669 43.6457 4.13568 48.5859 2.50195C53.526 0.83429 58.5959 4.45497e-05 63.7959 0ZM45.2979 82.0576C39.4544 82.5312 33.9567 83.088 28.8057 83.7285C23.6427 84.4092 19.1295 85.3449 15.2666 86.5361C11.4036 87.7274 8.35756 89.2589 6.12891 91.1309C3.90029 93.0028 2.78616 95.3686 2.78613 98.2275C2.78613 100.916 3.82615 102.959 5.90625 104.354C7.98631 105.784 11.1066 106.498 15.2666 106.498C18.3125 106.498 21.1547 106.073 23.792 105.222C26.4291 104.371 28.9364 102.975 31.3135 101.035C33.7278 99.0951 36.0868 96.5599 38.3896 93.4287C40.385 90.7452 42.4201 87.5367 44.499 83.8057C44.7591 83.2297 45.0258 82.6465 45.2979 82.0576ZM90.834 30.2158C88.9803 30.2158 87.1111 30.7416 85.2266 31.792C83.3728 32.8424 81.4878 34.3717 79.5723 36.3799C77.6877 38.3572 75.7566 40.798 73.7793 43.7021C71.8329 46.5754 69.8248 49.8349 67.7549 53.4805L67.3984 54.1074C65.6644 58.4876 63.9083 62.5759 62.125 66.3701C59.9335 71.033 57.6858 75.3212 55.3828 79.2354C58.6515 78.929 61.6049 78.5715 64.2422 78.1631C66.9165 77.7547 69.3866 77.2277 71.6523 76.5811C73.9181 75.9004 76.0168 75.0493 77.9482 74.0283C79.8798 73.0072 81.7376 71.7141 83.5205 70.1484C85.3406 68.5488 87.1048 66.642 88.8135 64.4297C89.1483 64.0056 89.919 63.3181 90.8594 62.5205C91.4847 60.896 92.0954 59.2885 92.6875 57.6973C92.6903 57.6899 92.6925 57.6822 92.6953 57.6748L91.7979 57.9971C92.1205 57.8627 92.4258 57.739 92.7139 57.624C93.7222 54.9634 94.6259 52.455 95.4219 50.0977C96.2252 47.7187 96.8588 45.5398 97.3223 43.5625C97.8165 41.5855 98.0634 39.9019 98.0635 38.5117C98.0635 35.8858 97.3836 33.8466 96.0244 32.3945C94.696 30.9425 92.9657 30.2159 90.834 30.2158Z" fill="url(#paint0_linear_40_45)"/>
<defs>
<linearGradient id="paint0_linear_40_45" x1="60.9883" y1="0" x2="60.9883" y2="109" gradientUnits="userSpaceOnUse">
<stop stop-color="#B89A39"/>
<stop offset="0.540816" stop-color="#E2BB40"/>
<stop offset="1" stop-color="#86722F"/>
</linearGradient>
</defs>
</svg>
